Coordinates
version=1
nRows=29
nColumns=22
inDegrees=yes

Units are S.I. units (second, meters, Newtons, ...)
If the header above contains a line with 'inDegrees', this indicates whether rotational values are in degrees (yes) or radians (no).

endheader
time	pelvis_tilt	pelvis_list	pelvis_rotation	pelvis_tx	pelvis_ty	pelvis_tz	hip_flexion_r	hip_adduction_r	hip_rotation_r	knee_angle_r	ankle_angle_r	subtalar_angle_r	hip_flexion_l	hip_adduction_l	hip_rotation_l	knee_angle_l	ankle_angle_l	subtalar_angle_l	lumbar_extension	lumbar_bending	lumbar_rotation
      1.35000000	     -1.60851291	     -2.38467992	     -6.85000979	     -1.27876461	      0.93274288	      0.01634534	      3.53084391	      3.96095074	     -1.14618376	    -14.01926417	      7.93370624	     -2.09772261	     -0.01799486	     -4.90080722	    -12.89972584	    -10.62333134	     10.41425682	      5.51647603	     -2.62445099	     -1.15952021	      0.69467792
      1.36000000	     -1.66788345	     -2.34870645	     -6.81679408	     -1.27766459	      0.93243698	      0.01733349	      3.59512222	      3.99386170	     -1.19299543	    -14.18877810	      8.13945374	     -2.18234827	     -0.00855066	     -4.93000397	    -12.83441647	    -10.66503410	     10.51729150	      5.48740105	     -2.53043277	     -1.19179696	      0.70484975
      1.37000000	     -1.79231915	     -2.27774961	     -6.76483207	     -1.27660015	      0.93202992	      0.01834247	      3.75452612	      4.00010435	     -1.25111546	    -14.39814354	      8.33733208	     -2.39511556	      0.13095283	     -4.94315529	    -12.75843718	    -10.80597567	     10.60524677	      5.41269272	     -2.36947563	     -1.25831643	      0.65625102
      1.38000000	     -1.83409081	     -2.25273657	     -6.72975974	     -1.27540503	      0.93173278	      0.01944936	      3.78214318	      4.05116306	     -1.27587536	    -14.55172223	      8.55919178	     -2.46710632	      0.14841604	     -4.99687238	    -12.68859455	    -10.91734358	     10.73650688	      5.38917851	     -2.30573797	     -1.28641438	      0.66018279
      1.39000000	     -1.96967460	     -2.20148760	     -6.67220439	     -1.27426884	      0.93129329	      0.02058490	      3.93822320	      4.08808678	     -1.33402486	    -14.74525430	      8.74031109	     -2.68282743	      0.34310596	     -5.05135106	    -12.60615776	    -11.15687394	     10.86720382	      5.31288887	     -2.14456928	     -1.34020547	      0.64664808
      1.40000000	     -2.05913968	     -2.18241556	     -6.63440097	     -1.27307684	      0.93090320	      0.02184149	      4.02378456	      4.16179843	     -1.35996220	    -14.91304513	      8.93859930	     -2.80902389	      0.49331527	     -5.14436859	    -12.53688245	    -11.43068671	     11.03715753	      5.26185220	     -2.04624626	     -1.36985416	      0.66321074
      1.41000000	     -2.09729340	     -2.18932364	     -6.60320751	     -1.27182419	      0.93057144	      0.02319125	      4.03110649	      4.26241067	     -1.35745678	    -15.05345221	      9.17356610	     -2.86154055	      0.60127053	     -5.26804601	    -12.46300900	    -11.74475859	     11.20312309	      5.23215946	     -2.01593507	     -1.38168362	      0.69099345
      1.42000000	     -2.27155808	     -2.21251662	     -6.56530866	     -1.27064843	      0.93002556	      0.02462830	      4.20396890	      4.40173953	     -1.38697949	    -15.22230102	      9.30930880	     -3.00590665	      0.94672152	     -5.44967280	    -12.37006564	    -12.23375201	     11.45161050	      5.14462208	     -1.84333968	     -1.36903548	      0.74803391
      1.43000000	     -2.36148155	     -2.26625672	     -6.53341385	     -1.26940705	      0.92956807	      0.02617409	      4.25367680	      4.56883708	     -1.40354772	    -15.34714820	      9.51357024	     -3.06427506	      1.22861004	     -5.66525725	    -12.26549169	    -12.79236645	     11.71100718	      5.08065486	     -1.77938312	     -1.34156709	      0.83705209
      1.44000000	     -2.51178027	     -2.35452800	     -6.49353887	     -1.26824148	      0.92898727	      0.02781269	      4.38221959	      4.79009227	     -1.38550284	    -15.50276143	      9.67335465	     -3.12833993	      1.66266423	     -5.94446004	    -12.10657417	    -13.51780312	     11.99735098	      4.97637796	     -1.67115294	     -1.27461673	      0.90189442
      1.45000000	     -2.63379129	     -2.48583867	     -6.44399590	     -1.26704281	      0.92839162	      0.02953044	      4.45628240	      5.05699118	     -1.38764531	    -15.62733764	      9.85729714	     -3.15830291	      2.13805418	     -6.28044846	    -11.89606446	    -14.39168414	     12.34062574	      4.85873969	     -1.61148260	     -1.17265128	      0.99940655
      1.46000000	     -2.77219728	     -2.65901732	     -6.36977901	     -1.26586542	      0.92769706	      0.03129821	      4.54083217	      5.37519882	     -1.38611756	    -15.74992443	     10.04704780	     -3.17605439	      2.73772792	     -6.67768033	    -11.60430270	    -15.46542460	     12.71390532	      4.69541198	     -1.55490641	     -1.02546909	      1.09665158
      1.47000000	     -2.90601289	     -2.88961496	     -6.26956000	     -1.26470521	      0.92691529	      0.03311316	      4.61270339	      5.75948098	     -1.39440740	    -15.87068694	     10.24719791	     -3.18384141	      3.44780690	     -7.14491958	    -11.21190331	    -16.75502815	     13.13377113	      4.47993414	     -1.53324919	     -0.82184619	      1.19249100
      1.48000000	     -3.03538424	     -3.17785788	     -6.13849877	     -1.26357651	      0.92602959	      0.03493228	      4.67688631	      6.20575819	     -1.41465251	    -15.99520823	     10.44988877	     -3.19135822	      4.28488293	     -7.67394204	    -10.69594297	    -18.27862428	     13.57939897	      4.19770057	     -1.54913981	     -0.55439635	      1.29107017
      1.49000000	     -3.20343618	     -3.50717014	     -5.96818476	     -1.26249295	      0.92495418	      0.03673563	      4.79003645	      6.70031312	     -1.45728590	    -16.13567092	     10.69879505	     -3.21252226	      5.32279771	     -8.24601050	    -10.05567775	    -20.07306919	     13.97322060	      3.79143207	     -1.55052584	     -0.24077542	      1.38613724
      1.50000000	     -3.31605826	     -3.91321270	     -5.76703520	     -1.26143092	      0.92380691	      0.03847527	      4.85503271	      7.26642541	     -1.52406891	    -16.30524766	     10.94232387	     -3.24483095	      6.43518910	     -8.87041752	     -9.28198453	    -22.09686689	     14.40981861	      3.32660983	     -1.65761783	      0.16078997	      1.49275467
      1.51000000	     -3.39759400	     -4.37755931	     -5.53046390	     -1.26038358	      0.92255095	      0.04011183	      4.89429300	      7.88528572	     -1.62095880	    -16.48682113	     11.17992212	     -3.29142524	      7.65980938	     -9.52197896	     -8.39898086	    -24.35748943	     14.80955017	      2.79306531	     -1.83753646	      0.63372801	      1.60550987
      1.52000000	     -3.44159709	     -4.88732966	     -5.26407564	     -1.25934724	      0.92119851	      0.04161156	      4.91258869	      8.53962429	     -1.75728058	    -16.69522399	     11.42822794	     -3.34940752	      8.98124670	    -10.17635037	     -7.43485733	    -26.83175083	     15.15112474	      2.19776961	     -2.09639553	      1.16506951	      1.73923674
      1.53000000	     -3.44355843	     -5.42122496	     -4.97006193	     -1.25830648	      0.91976789	      0.04293766	      4.91252900	      9.20428912	     -1.92754462	    -16.94068039	     11.70424703	     -3.41469657	     10.38474418	    -10.80517667	     -6.43531197	    -29.49298490	     15.41823676	      1.54834141	     -2.43363389	      1.73349759	      1.88738874
      1.54000000	     -3.38632335	     -5.96273113	     -4.65613171	     -1.25724356	      0.91832488	      0.04409783	      4.87044242	      9.86136002	     -2.12777398	    -17.20850578	     12.00036472	     -3.47985394	     11.82623487	    -11.38945282	     -5.44509623	    -32.28796979	     15.58742664	      0.88179456	     -2.86573628	      2.31448732	      2.05129100
      1.55000000	     -3.26646197	     -6.49576500	     -4.32963087	     -1.25612211	      0.91693168	      0.04509154	      4.77452129	     10.49208559	     -2.36860715	    -17.48449827	     12.28779518	     -3.54086858	     13.27185242	    -11.91053863	     -4.48901414	    -35.15477524	     15.63119226	      0.23284933	     -3.38601911	      2.89215618	      2.24606885
      1.56000000	     -3.08011115	     -6.98487530	     -4.00298349	     -1.25490791	      0.91566376	      0.04595016	      4.60909023	     11.06156947	     -2.62201648	    -17.75230240	     12.58149572	     -3.59100748	     14.67811806	    -12.33666852	     -3.61202792	    -38.01281608	     15.55859041	     -0.35323153	     -3.99037447	      3.42022801	      2.47615263
      1.57000000	     -2.83084562	     -7.40359112	     -3.69097552	     -1.25358815	      0.91459128	      0.04672592	      4.36574147	     11.54594125	     -2.87021997	    -17.99335640	     12.86075154	     -3.62253237	     16.01083467	    -12.64665539	     -2.83515861	    -40.78107823	     15.38437634	     -0.81745974	     -4.66965804	      3.86093109	      2.73399752
      1.58000000	     -2.48635393	     -7.72729522	     -3.39739834	     -1.25208621	      0.91384277	      0.04744514	      3.96922301	     11.92428406	     -3.05135427	    -18.14644778	     13.12412648	     -3.62075273	     17.18543924	    -12.81560888	     -2.17281301	    -43.36110378	     15.12939895	     -1.05274465	     -5.44915955	      4.18233866	      3.00765519
      1.59000000	     -2.18451623	     -7.91816108	     -3.15153716	     -1.25047658	      0.91326200	      0.04816090	      3.61307229	     12.15778263	     -3.24612210	    -18.29257392	     13.36429625	     -3.60439035	     18.34379020	    -12.81497097	     -1.63553569	    -45.71631454	     14.80293940	     -1.18027664	     -6.16849461	      4.34159900	      3.30946619
      1.60000000	     -1.89731009	     -7.96504502	     -2.96604195	     -1.24867834	      0.91293731	      0.04891407	      3.23338436	     12.23756613	     -3.39572891	    -18.38732680	     13.58546728	     -3.56316696	     19.41203812	    -12.64473689	     -1.25489758	    -47.76568994	     14.43549587	     -1.12517114	     -6.85082451	      4.32092300	      3.64117838
      1.61000000	     -1.65478947	     -7.87440284	     -2.83421075	     -1.24665759	      0.91283761	      0.04971334	      2.85606444	     12.17237862	     -3.50898336	    -18.42349078	     13.77237669	     -3.49249116	     20.41449252	    -12.31802758	     -1.02033975	    -49.47453418	     14.03504797	     -0.86778129	     -7.45112928	      4.12906046	      3.97952179
      1.62000000	     -1.45706917	     -7.64427926	     -2.78539835	     -1.24440263	      0.91296818	      0.05063008	      2.47751925	     11.96459371	     -3.53788946	    -18.40383665	     13.93885407	     -3.40682781	     21.33315915	    -11.86252333	     -0.98124080	    -50.80919096	     13.59699087	     -0.48620165	     -7.97177213	      3.75794157	      4.33927705
      1.63000000	     -1.32724912	     -7.32035022	     -2.80365211	     -1.24189174	      0.91324523	      0.05165367	      2.12233685	     11.66305325	     -3.51031511	    -18.32663539	     14.06625317	     -3.32141010	     22.21181719	    -11.33689674	     -1.10933442	    -51.78566472	     13.13877499	     -0.06437830	     -8.37929079	      3.26361878	      4.71239049
